<svg width="68" height="69" viewBox="0 0 68 69" fill="none" xmlns="http://www.w3.org/2000/svg">
<circle cx="34.2461" cy="34.5" r="32.7539" stroke="#EEEEEE" stroke-width="2"/>
<g clip-path="url(#clip0_322_122)">
<path d="M28.8377 18.1661C32.1228 18.1343 35.4078 18.1851 38.6929 18.1406C39.2367 18.9738 39.7105 19.8483 40.2161 20.707C38.095 23.2447 35.9834 25.792 33.8591 28.3265C31.7348 25.7888 29.6168 23.2447 27.5021 20.6974C27.9473 19.8547 28.3989 19.0152 28.8377 18.1661ZM12.2344 25.8842C16.8901 25.6679 21.5616 25.8492 26.2237 25.7888C27.4989 27.0608 28.7709 28.3329 30.043 29.6081C29.1939 32.572 28.3512 35.5422 27.4957 38.506C25.3778 37.6633 23.2598 36.8142 21.1419 35.9651C22.4044 34.2638 23.6923 32.5847 24.9453 30.8801C23.352 30.8547 21.7175 31.0073 20.1751 30.5176C17.189 29.6431 14.699 27.7128 12.2344 25.8969V25.8842ZM41.4977 25.7888C46.1598 25.8047 50.8218 25.7602 55.4838 25.811V25.8206C53.1624 27.6968 50.6819 29.4873 47.8198 30.4317C46.1948 31.0201 44.4521 30.8579 42.7602 30.8801C44.0355 32.572 45.3043 34.267 46.5732 35.962C44.4616 36.8206 42.3405 37.6601 40.2225 38.506C39.3671 35.5422 38.5243 32.5751 37.6752 29.6081C38.9505 28.3329 40.2193 27.0576 41.4977 25.7888ZM32.5903 30.9119C33.0227 31.3126 33.4489 31.7229 33.8591 32.149C34.2789 31.726 34.7018 31.3063 35.128 30.8865C36.4127 37.2372 37.6625 43.5942 38.9505 49.9417C37.2618 51.2297 35.5605 52.5081 33.8496 53.7674C32.1578 52.4922 30.4564 51.2328 28.7678 49.9481C30.0525 43.6069 31.2991 37.2531 32.5903 30.9119Z" fill="#EEEEEE"/>
</g>
<defs>
<clipPath id="clip0_322_122">
<rect width="43.2495" height="43.2495" fill="white" transform="translate(12.2344 14.3398)"/>
</clipPath>
</defs>
</svg>
