<svg width="68" height="69" viewBox="0 0 68 69" fill="none" xmlns="http://www.w3.org/2000/svg">
<circle cx="34.2461" cy="34.5" r="32.7539" stroke="#EEEEEE" stroke-width="2"/>
<path d="M31.5124 50.3996C28.2626 46.9627 28.03 46.7336 26.2461 45.2113C24.6762 43.8711 22.9017 42.3625 22.6484 42.1524C22.5039 42.0322 22.4601 41.9334 22.4135 41.6216C22.3817 41.4106 22.2562 40.5482 22.1342 39.7048C21.5001 35.3224 20.7465 32.6344 19.4642 30.1802C18.6384 28.5998 17.7844 27.4617 16.4042 26.1035C15.8811 25.5882 15.471 25.1669 15.493 25.1669C15.6267 25.1669 17.7342 26.2662 18.8912 26.9394C21.3363 28.3624 23.3682 29.9973 24.9724 31.8325C26.1693 33.2019 27.263 35.0125 28.0366 36.9065C28.2013 37.3102 28.3553 37.6619 28.3784 37.6878C28.4261 37.7414 28.4663 37.3712 28.5687 35.9303C28.6549 34.718 28.6055 32.2803 28.4699 31.0645C28.0302 27.1196 27.1302 24.297 23.9572 16.9146C23.3099 15.4086 22.7882 14.1567 22.7974 14.1324C22.8153 14.0853 24.5969 16.7173 26.135 19.0629C30.3403 25.4758 32.8688 30.2712 34.4851 34.8982C35.8641 38.8466 36.3655 41.6821 36.2907 45.1115C36.2271 48.0096 35.7523 50.223 34.6631 52.6938C34.5024 53.0587 34.357 53.3571 34.3403 53.3571C34.3235 53.3571 33.0507 52.0265 31.5124 50.3996ZM38.4786 36.5296C38.0378 35.1158 37.4622 33.5657 36.6294 31.5488L35.9163 29.8212L36.12 29.337C36.5078 28.4157 37.3347 26.7689 37.9814 25.6311C39.1839 23.5164 40.3914 21.6829 42.6378 18.5615C43.3967 17.5072 44.4541 16.0374 44.9881 15.2946C45.5215 14.5521 45.9582 13.9699 45.9582 14.0012C45.9582 14.0325 45.5402 15.0251 45.0294 16.2068C43.1222 20.6181 42.2263 22.9254 41.566 25.127C40.806 27.6595 40.431 29.7024 40.3077 31.9786C40.2444 33.1527 40.1124 33.7025 39.3535 35.9514C39.0982 36.7092 38.889 37.3648 38.889 37.4076C38.889 37.451 38.8678 37.4986 38.8416 37.5141C38.8156 37.5296 38.6521 37.0864 38.4786 36.5296ZM40.3434 47.3018C40.3537 47.1134 40.3749 46.3618 40.3908 45.6318C40.4215 44.2306 40.441 44.0935 40.8247 42.5804C41.5824 39.5905 42.3946 37.3452 43.534 35.0874C45.4074 31.3758 47.7356 28.6469 50.8082 26.5604C51.3874 26.1669 53.0893 25.1669 53.1797 25.1669C53.2065 25.1669 52.8281 25.5604 52.3391 26.0414C50.9812 27.3763 50.1626 28.4408 49.3678 29.9047C47.9189 32.5745 47.186 35.1947 46.4523 40.3239L46.2132 41.996L43.2692 44.8205L40.3253 47.645L40.3434 47.3018Z" fill="#EEEEEE"/>
</svg>
