<svg width="136" height="148" viewBox="0 0 136 148" fill="none" xmlns="http://www.w3.org/2000/svg">
<path d="M57.421 135.986C45.773 123.146 44.939 122.29 38.545 116.603C32.918 111.596 26.558 105.96 25.65 105.175C25.132 104.726 24.975 104.357 24.808 103.192C24.694 102.404 24.244 99.1815 23.807 96.0305C21.534 79.6585 18.833 69.6165 14.237 60.4475C11.277 54.5435 8.21604 50.2915 3.26904 45.2175C1.39404 43.2925 -0.075959 41.7185 0.00304103 41.7185C0.482041 41.7185 8.03604 45.8255 12.183 48.3405C20.947 53.6565 28.23 59.7645 33.98 66.6205C38.27 71.7365 42.19 78.5005 44.963 85.5765C45.553 87.0845 46.105 88.3985 46.188 88.4955C46.359 88.6955 46.503 87.3125 46.87 81.9295C47.179 77.4005 47.002 68.2935 46.516 63.7515C44.94 49.0135 41.714 38.4685 30.341 10.8885C28.021 5.26251 26.151 0.585508 26.184 0.494508C26.248 0.318508 32.634 10.1515 38.147 18.9145C53.22 42.8725 62.283 60.7875 68.076 78.0735C73.019 92.8245 74.816 103.417 74.548 116.229C74.32 127.056 72.618 135.326 68.714 144.557C68.138 145.92 67.617 147.035 67.557 147.035C67.497 147.035 62.935 142.064 57.421 135.986ZM82.39 84.1685C80.81 78.8865 78.747 73.0955 75.762 65.5605L73.206 59.1065L73.936 57.2975C75.326 53.8555 78.29 47.7035 80.608 43.4525C84.918 35.5525 89.246 28.7025 97.298 17.0415C100.018 13.1025 103.808 7.61151 105.722 4.83651C107.634 2.06251 109.199 -0.112492 109.199 0.00450794C109.199 0.121508 107.701 3.82951 105.87 8.24451C99.034 24.7245 95.823 33.3445 93.456 41.5695C90.732 51.0305 89.388 58.6625 88.946 67.1665C88.719 71.5525 88.246 73.6065 85.526 82.0085C84.611 84.8395 83.861 87.2885 83.861 87.4485C83.861 87.6105 83.785 87.7885 83.691 87.8465C83.598 87.9045 83.012 86.2485 82.39 84.1685ZM89.074 124.413C89.111 123.709 89.187 120.901 89.244 118.174C89.354 112.938 89.424 112.427 90.799 106.774C93.515 95.6035 96.426 87.2155 100.51 78.7805C107.225 64.9145 115.57 54.7195 126.583 46.9245C128.659 45.4545 134.759 41.7185 135.083 41.7185C135.179 41.7185 133.823 43.1885 132.07 44.9855C127.203 49.9725 124.269 53.9495 121.42 59.4185C116.227 69.3925 113.6 79.1815 110.97 98.3435L110.113 104.591L99.561 115.143L89.009 125.695L89.074 124.413Z" fill="#545454"/>
</svg>
