<svg width="157" height="157" viewBox="0 0 157 157" fill="none" xmlns="http://www.w3.org/2000/svg">
<g clip-path="url(#clip0_98_78)">
<path d="M60.2718 13.8873C72.1969 13.7718 84.122 13.9565 96.0471 13.7949C98.0211 16.8195 99.7412 19.9941 101.577 23.111C93.8768 32.3232 86.2115 41.5701 78.5 50.7707C70.7885 41.5585 63.1002 32.3232 55.4233 23.0764C57.0395 20.0172 58.6788 16.9696 60.2718 13.8873ZM0 41.9048C16.9006 41.1198 33.8589 41.7779 50.7826 41.5585C55.4118 46.1762 60.0294 50.7938 64.6471 55.423C61.5648 66.1821 58.5056 76.9643 55.4002 87.7235C47.7118 84.6643 40.0235 81.582 32.3351 78.4997C36.9181 72.3236 41.5935 66.2283 46.1418 60.0407C40.3582 59.9483 34.4246 60.5024 28.8257 58.7246C17.9857 55.55 8.94669 48.5427 0 41.951V41.9048ZM106.229 41.5585C123.153 41.6162 140.076 41.4546 157 41.6393V41.674C148.573 48.485 139.568 54.9843 129.179 58.4129C123.28 60.5486 116.953 59.9598 110.812 60.0407C115.441 66.1821 120.047 72.3351 124.653 78.4882C116.988 81.6051 109.288 84.6527 101.6 87.7235C98.4944 76.9643 95.4352 66.1937 92.353 55.423C96.9821 50.7938 101.588 46.1646 106.229 41.5585ZM73.8939 60.1561C75.4639 61.6107 77.0108 63.0998 78.5 64.6468C80.0238 63.1114 81.5592 61.5876 83.1061 60.0637C87.7699 83.1173 92.3068 106.194 96.9821 129.236C90.8522 133.911 84.6761 138.552 78.4654 143.124C72.3239 138.494 66.1478 133.923 60.0179 129.259C64.6817 106.24 69.207 83.1751 73.8939 60.1561Z" fill="white"/>
</g>
<defs>
<clipPath id="clip0_98_78">
<rect width="157" height="157" fill="white"/>
</clipPath>
</defs>
</svg>
